<svg xmlns="http://www.w3.org/2000/svg" xmlns:xlink="http://www.w3.org/1999/xlink" viewBox="0 0 677.005126953125 476.013671875" version="1.1" style="box-shadow: none; border-radius: 0px; opacity: 1;" preserveAspectRatio="xMidYMid meet" fill="#2ce879" fill-opacity="1" width="677" height="477">
<title>Group</title>
<desc>Created using Figma</desc>
<g id="Canvas" transform="translate(-1909 -16209)">
<g id="Group">
<g id="Ellipse 8">
<use xlink:href="#path0_fill" transform="matrix(1 -1.60809e-16 1.60815e-16 1 2447.23 16343.8)" fill="" fill-opacity="" style="undefined"/>
</g>
<g id="Ellipse 8">
<use xlink:href="#path0_fill" transform="matrix(1 -1.60809e-16 1.60815e-16 1 2514.52 16343.8)" fill="" fill-opacity="" style="undefined"/>
</g>
<g id="Ellipse 8">
<use xlink:href="#path0_fill" transform="matrix(1 -1.60809e-16 1.60815e-16 1 2447.23 16411.2)" fill="" fill-opacity="" style="undefined"/>
</g>
<g id="Ellipse 8">
<use xlink:href="#path0_fill" transform="matrix(1 -1.60809e-16 1.60815e-16 1 2514.52 16411.2)" fill="" fill-opacity="" style="undefined"/>
</g>
<g id="Ellipse 8">
<use xlink:href="#path0_fill" transform="matrix(1 -1.60809e-16 1.60815e-16 1 2581.8 16343.8)" fill="" fill-opacity="" style="undefined"/>
</g>
<g id="Ellipse 8">
<use xlink:href="#path0_fill" transform="matrix(1 -1.60809e-16 1.60815e-16 1 2581.8 16411.2)" fill="" fill-opacity="" style="undefined"/>
</g>
<g id="Ellipse 8">
<use xlink:href="#path0_fill" transform="matrix(1 -1.60809e-16 1.60815e-16 1 2447.23 16209)" fill="" fill-opacity="" style="undefined"/>
</g>
<g id="Ellipse 8">
<use xlink:href="#path0_fill" transform="matrix(1 -1.60809e-16 1.60815e-16 1 2514.52 16209)" fill="" fill-opacity="" style="undefined"/>
</g>
<g id="Ellipse 8">
<use xlink:href="#path0_fill" transform="matrix(1 -1.60809e-16 1.60815e-16 1 2447.23 16276.4)" fill="" fill-opacity="" style="undefined"/>
</g>
<g id="Ellipse 8">
<use xlink:href="#path0_fill" transform="matrix(1 -1.60809e-16 1.60815e-16 1 2514.52 16276.4)" fill="" fill-opacity="" style="undefined"/>
</g>
<g id="Ellipse 8">
<use xlink:href="#path0_fill" transform="matrix(1 -1.60809e-16 1.60815e-16 1 2581.8 16209)" fill="" fill-opacity="" style="undefined"/>
</g>
<g id="Ellipse 8">
<use xlink:href="#path0_fill" transform="matrix(1 -1.60809e-16 1.60815e-16 1 2581.8 16276.4)" fill="" fill-opacity="" style="undefined"/>
</g>
<g id="Ellipse 8">
<use xlink:href="#path0_fill" transform="matrix(1 -1.60809e-16 1.60815e-16 1 1909 16343.8)" fill="" fill-opacity="" style="undefined"/>
</g>
<g id="Ellipse 8">
<use xlink:href="#path0_fill" transform="matrix(1 -1.60809e-16 1.60815e-16 1 1976.28 16343.8)" fill="" fill-opacity="" style="undefined"/>
</g>
<g id="Ellipse 8">
<use xlink:href="#path0_fill" transform="matrix(1 -1.60809e-16 1.60815e-16 1 1909 16411.2)" fill="" fill-opacity="" style="undefined"/>
</g>
<g id="Ellipse 8">
<use xlink:href="#path0_fill" transform="matrix(1 -1.60809e-16 1.60815e-16 1 1976.28 16411.2)" fill="" fill-opacity="" style="undefined"/>
</g>
<g id="Ellipse 8">
<use xlink:href="#path0_fill" transform="matrix(1 -1.60809e-16 1.60815e-16 1 2043.56 16343.8)" fill="" fill-opacity="" style="undefined"/>
</g>
<g id="Ellipse 8">
<use xlink:href="#path0_fill" transform="matrix(1 -1.60809e-16 1.60815e-16 1 2110.84 16343.8)" fill="" fill-opacity="" style="undefined"/>
</g>
<g id="Ellipse 8">
<use xlink:href="#path0_fill" transform="matrix(1 -1.60809e-16 1.60815e-16 1 2043.56 16411.2)" fill="" fill-opacity="" style="undefined"/>
</g>
<g id="Ellipse 8">
<use xlink:href="#path0_fill" transform="matrix(1 -1.60809e-16 1.60815e-16 1 2110.84 16411.2)" fill="" fill-opacity="" style="undefined"/>
</g>
<g id="Ellipse 8">
<use xlink:href="#path0_fill" transform="matrix(1 -1.60809e-16 1.60815e-16 1 2178.12 16343.8)" fill="" fill-opacity="" style="undefined"/>
</g>
<g id="Ellipse 8">
<use xlink:href="#path0_fill" transform="matrix(1 -1.60809e-16 1.60815e-16 1 2245.4 16343.8)" fill="" fill-opacity="" style="undefined"/>
</g>
<g id="Ellipse 8">
<use xlink:href="#path0_fill" transform="matrix(1 -1.60809e-16 1.60815e-16 1 2178.12 16411.2)" fill="" fill-opacity="" style="undefined"/>
</g>
<g id="Ellipse 8">
<use xlink:href="#path0_fill" transform="matrix(1 -1.60809e-16 1.60815e-16 1 2245.4 16411.2)" fill="" fill-opacity="" style="undefined"/>
</g>
<g id="Ellipse 8">
<use xlink:href="#path0_fill" transform="matrix(1 -1.60809e-16 1.60815e-16 1 2312.68 16343.8)" fill="" fill-opacity="" style="undefined"/>
</g>
<g id="Ellipse 8">
<use xlink:href="#path0_fill" transform="matrix(1 -1.60809e-16 1.60815e-16 1 2379.96 16343.8)" fill="" fill-opacity="" style="undefined"/>
</g>
<g id="Ellipse 8">
<use xlink:href="#path0_fill" transform="matrix(1 -1.60809e-16 1.60815e-16 1 2312.68 16411.2)" fill="" fill-opacity="" style="undefined"/>
</g>
<g id="Ellipse 8">
<use xlink:href="#path0_fill" transform="matrix(1 -1.60809e-16 1.60815e-16 1 2379.96 16411.2)" fill="" fill-opacity="" style="undefined"/>
</g>
<g id="Ellipse 8">
<use xlink:href="#path0_fill" transform="matrix(1 -1.60809e-16 1.60815e-16 1 1909 16209)" fill="" fill-opacity="" style="undefined"/>
</g>
<g id="Ellipse 8">
<use xlink:href="#path0_fill" transform="matrix(1 -1.60809e-16 1.60815e-16 1 1976.28 16209)" fill="" fill-opacity="" style="undefined"/>
</g>
<g id="Ellipse 8">
<use xlink:href="#path0_fill" transform="matrix(1 -1.60809e-16 1.60815e-16 1 1909 16276.4)" fill="" fill-opacity="" style="undefined"/>
</g>
<g id="Ellipse 8">
<use xlink:href="#path0_fill" transform="matrix(1 -1.60809e-16 1.60815e-16 1 1976.28 16276.4)" fill="" fill-opacity="" style="undefined"/>
</g>
<g id="Ellipse 8">
<use xlink:href="#path0_fill" transform="matrix(1 -1.60809e-16 1.60815e-16 1 2043.56 16209)" fill="" fill-opacity="" style="undefined"/>
</g>
<g id="Ellipse 8">
<use xlink:href="#path0_fill" transform="matrix(1 -1.60809e-16 1.60815e-16 1 2110.84 16209)" fill="" fill-opacity="" style="undefined"/>
</g>
<g id="Ellipse 8">
<use xlink:href="#path0_fill" transform="matrix(1 -1.60809e-16 1.60815e-16 1 2043.56 16276.4)" fill="" fill-opacity="" style="undefined"/>
</g>
<g id="Ellipse 8">
<use xlink:href="#path0_fill" transform="matrix(1 -1.60809e-16 1.60815e-16 1 2110.84 16276.4)" fill="" fill-opacity="" style="undefined"/>
</g>
<g id="Ellipse 8">
<use xlink:href="#path0_fill" transform="matrix(1 -1.60809e-16 1.60815e-16 1 2178.12 16209)" fill="" fill-opacity="" style="undefined"/>
</g>
<g id="Ellipse 8">
<use xlink:href="#path0_fill" transform="matrix(1 -1.60809e-16 1.60815e-16 1 2245.4 16209)" fill="" fill-opacity="" style="undefined"/>
</g>
<g id="Ellipse 8">
<use xlink:href="#path0_fill" transform="matrix(1 -1.60809e-16 1.60815e-16 1 2178.12 16276.4)" fill="" fill-opacity="" style="undefined"/>
</g>
<g id="Ellipse 8">
<use xlink:href="#path0_fill" transform="matrix(1 -1.60809e-16 1.60815e-16 1 2245.4 16276.4)" fill="" fill-opacity="" style="undefined"/>
</g>
<g id="Ellipse 8">
<use xlink:href="#path0_fill" transform="matrix(1 -1.60809e-16 1.60815e-16 1 2312.68 16209)" fill="" fill-opacity="" style="undefined"/>
</g>
<g id="Ellipse 8">
<use xlink:href="#path0_fill" transform="matrix(1 -1.60809e-16 1.60815e-16 1 2379.96 16209)" fill="" fill-opacity="" style="undefined"/>
</g>
<g id="Ellipse 8">
<use xlink:href="#path0_fill" transform="matrix(1 -1.60809e-16 1.60815e-16 1 2312.68 16276.4)" fill="" fill-opacity="" style="undefined"/>
</g>
<g id="Ellipse 8">
<use xlink:href="#path0_fill" transform="matrix(1 -1.60809e-16 1.60815e-16 1 2379.96 16276.4)" fill="" fill-opacity="" style="undefined"/>
</g>
<g id="Ellipse 8">
<use xlink:href="#path0_fill" transform="matrix(1 -1.60809e-16 1.60815e-16 1 2447.23 16613.4)" fill="" fill-opacity="" style="undefined"/>
</g>
<g id="Ellipse 8">
<use xlink:href="#path0_fill" transform="matrix(1 -1.60809e-16 1.60815e-16 1 2514.52 16613.4)" fill="" fill-opacity="" style="undefined"/>
</g>
<g id="Ellipse 8">
<use xlink:href="#path0_fill" transform="matrix(1 -1.60809e-16 1.60815e-16 1 2447.23 16680.8)" fill="" fill-opacity="" style="undefined"/>
</g>
<g id="Ellipse 8">
<use xlink:href="#path0_fill" transform="matrix(1 -1.60809e-16 1.60815e-16 1 2514.52 16680.8)" fill="" fill-opacity="" style="undefined"/>
</g>
<g id="Ellipse 8">
<use xlink:href="#path0_fill" transform="matrix(1 -1.60809e-16 1.60815e-16 1 2581.8 16613.4)" fill="" fill-opacity="" style="undefined"/>
</g>
<g id="Ellipse 8">
<use xlink:href="#path0_fill" transform="matrix(1 -1.60809e-16 1.60815e-16 1 2581.8 16680.8)" fill="" fill-opacity="" style="undefined"/>
</g>
<g id="Ellipse 8">
<use xlink:href="#path0_fill" transform="matrix(1 -1.60809e-16 1.60815e-16 1 2447.23 16478.6)" fill="" fill-opacity="" style="undefined"/>
</g>
<g id="Ellipse 8">
<use xlink:href="#path0_fill" transform="matrix(1 -1.60809e-16 1.60815e-16 1 2514.52 16478.6)" fill="" fill-opacity="" style="undefined"/>
</g>
<g id="Ellipse 8">
<use xlink:href="#path0_fill" transform="matrix(1 -1.60809e-16 1.60815e-16 1 2447.23 16546)" fill="" fill-opacity="" style="undefined"/>
</g>
<g id="Ellipse 8">
<use xlink:href="#path0_fill" transform="matrix(1 -1.60809e-16 1.60815e-16 1 2514.52 16546)" fill="" fill-opacity="" style="undefined"/>
</g>
<g id="Ellipse 8">
<use xlink:href="#path0_fill" transform="matrix(1 -1.60809e-16 1.60815e-16 1 2581.8 16478.6)" fill="" fill-opacity="" style="undefined"/>
</g>
<g id="Ellipse 8">
<use xlink:href="#path0_fill" transform="matrix(1 -1.60809e-16 1.60815e-16 1 2581.8 16546)" fill="" fill-opacity="" style="undefined"/>
</g>
<g id="Ellipse 8">
<use xlink:href="#path0_fill" transform="matrix(1 -1.60809e-16 1.60815e-16 1 1909 16613.4)" fill="" fill-opacity="" style="undefined"/>
</g>
<g id="Ellipse 8">
<use xlink:href="#path0_fill" transform="matrix(1 -1.60809e-16 1.60815e-16 1 1976.28 16613.4)" fill="" fill-opacity="" style="undefined"/>
</g>
<g id="Ellipse 8">
<use xlink:href="#path0_fill" transform="matrix(1 -1.60809e-16 1.60815e-16 1 1909 16680.8)" fill="" fill-opacity="" style="undefined"/>
</g>
<g id="Ellipse 8">
<use xlink:href="#path0_fill" transform="matrix(1 -1.60809e-16 1.60815e-16 1 1976.28 16680.8)" fill="" fill-opacity="" style="undefined"/>
</g>
<g id="Ellipse 8">
<use xlink:href="#path0_fill" transform="matrix(1 -1.60809e-16 1.60815e-16 1 2043.56 16613.4)" fill="" fill-opacity="" style="undefined"/>
</g>
<g id="Ellipse 8">
<use xlink:href="#path0_fill" transform="matrix(1 -1.60809e-16 1.60815e-16 1 2110.84 16613.4)" fill="" fill-opacity="" style="undefined"/>
</g>
<g id="Ellipse 8">
<use xlink:href="#path0_fill" transform="matrix(1 -1.60809e-16 1.60815e-16 1 2043.56 16680.8)" fill="" fill-opacity="" style="undefined"/>
</g>
<g id="Ellipse 8">
<use xlink:href="#path0_fill" transform="matrix(1 -1.60809e-16 1.60815e-16 1 2110.84 16680.8)" fill="" fill-opacity="" style="undefined"/>
</g>
<g id="Ellipse 8">
<use xlink:href="#path0_fill" transform="matrix(1 -1.60809e-16 1.60815e-16 1 2178.12 16613.4)" fill="" fill-opacity="" style="undefined"/>
</g>
<g id="Ellipse 8">
<use xlink:href="#path0_fill" transform="matrix(1 -1.60809e-16 1.60815e-16 1 2245.4 16613.4)" fill="" fill-opacity="" style="undefined"/>
</g>
<g id="Ellipse 8">
<use xlink:href="#path0_fill" transform="matrix(1 -1.60809e-16 1.60815e-16 1 2178.12 16680.8)" fill="" fill-opacity="" style="undefined"/>
</g>
<g id="Ellipse 8">
<use xlink:href="#path0_fill" transform="matrix(1 -1.60809e-16 1.60815e-16 1 2245.4 16680.8)" fill="" fill-opacity="" style="undefined"/>
</g>
<g id="Ellipse 8">
<use xlink:href="#path0_fill" transform="matrix(1 -1.60809e-16 1.60815e-16 1 2312.68 16613.4)" fill="" fill-opacity="" style="undefined"/>
</g>
<g id="Ellipse 8">
<use xlink:href="#path0_fill" transform="matrix(1 -1.60809e-16 1.60815e-16 1 2379.96 16613.4)" fill="" fill-opacity="" style="undefined"/>
</g>
<g id="Ellipse 8">
<use xlink:href="#path0_fill" transform="matrix(1 -1.60809e-16 1.60815e-16 1 2312.68 16680.8)" fill="" fill-opacity="" style="undefined"/>
</g>
<g id="Ellipse 8">
<use xlink:href="#path0_fill" transform="matrix(1 -1.60809e-16 1.60815e-16 1 2379.96 16680.8)" fill="" fill-opacity="" style="undefined"/>
</g>
<g id="Ellipse 8">
<use xlink:href="#path0_fill" transform="matrix(1 -1.60809e-16 1.60815e-16 1 1909 16478.6)" fill="" fill-opacity="" style="undefined"/>
</g>
<g id="Ellipse 8">
<use xlink:href="#path0_fill" transform="matrix(1 -1.60809e-16 1.60815e-16 1 1976.28 16478.6)" fill="" fill-opacity="" style="undefined"/>
</g>
<g id="Ellipse 8">
<use xlink:href="#path0_fill" transform="matrix(1 -1.60809e-16 1.60815e-16 1 1909 16546)" fill="" fill-opacity="" style="undefined"/>
</g>
<g id="Ellipse 8">
<use xlink:href="#path0_fill" transform="matrix(1 -1.60809e-16 1.60815e-16 1 1976.28 16546)" fill="" fill-opacity="" style="undefined"/>
</g>
<g id="Ellipse 8">
<use xlink:href="#path0_fill" transform="matrix(1 -1.60809e-16 1.60815e-16 1 2043.56 16478.6)" fill="" fill-opacity="" style="undefined"/>
</g>
<g id="Ellipse 8">
<use xlink:href="#path0_fill" transform="matrix(1 -1.60809e-16 1.60815e-16 1 2110.84 16478.6)" fill="" fill-opacity="" style="undefined"/>
</g>
<g id="Ellipse 8">
<use xlink:href="#path0_fill" transform="matrix(1 -1.60809e-16 1.60815e-16 1 2043.56 16546)" fill="" fill-opacity="" style="undefined"/>
</g>
<g id="Ellipse 8">
<use xlink:href="#path0_fill" transform="matrix(1 -1.60809e-16 1.60815e-16 1 2110.84 16546)" fill="" fill-opacity="" style="undefined"/>
</g>
<g id="Ellipse 8">
<use xlink:href="#path0_fill" transform="matrix(1 -1.60809e-16 1.60815e-16 1 2178.12 16478.6)" fill="" fill-opacity="" style="undefined"/>
</g>
<g id="Ellipse 8">
<use xlink:href="#path0_fill" transform="matrix(1 -1.60809e-16 1.60815e-16 1 2245.4 16478.6)" fill="" fill-opacity="" style="undefined"/>
</g>
<g id="Ellipse 8">
<use xlink:href="#path0_fill" transform="matrix(1 -1.60809e-16 1.60815e-16 1 2178.12 16546)" fill="" fill-opacity="" style="undefined"/>
</g>
<g id="Ellipse 8">
<use xlink:href="#path0_fill" transform="matrix(1 -1.60809e-16 1.60815e-16 1 2245.4 16546)" fill="" fill-opacity="" style="undefined"/>
</g>
<g id="Ellipse 8">
<use xlink:href="#path0_fill" transform="matrix(1 -1.60809e-16 1.60815e-16 1 2312.68 16478.6)" fill="" fill-opacity="" style="undefined"/>
</g>
<g id="Ellipse 8">
<use xlink:href="#path0_fill" transform="matrix(1 -1.60809e-16 1.60815e-16 1 2379.96 16478.6)" fill="" fill-opacity="" style="undefined"/>
</g>
<g id="Ellipse 8">
<use xlink:href="#path0_fill" transform="matrix(1 -1.60809e-16 1.60815e-16 1 2312.68 16546)" fill="" fill-opacity="" style="undefined"/>
</g>
<g id="Ellipse 8">
<use xlink:href="#path0_fill" transform="matrix(1 -1.60809e-16 1.60815e-16 1 2379.96 16546)" fill="" fill-opacity="" style="undefined"/>
</g>
</g>
</g>
<defs>
<path id="path0_fill" d="M 4.20496 2.10619C 4.20496 3.26941 3.26365 4.21238 2.10248 4.21238C 0.941312 4.21238 0 3.26941 0 2.10619C 0 0.942974 0.941312 0 2.10248 0C 3.26365 0 4.20496 0.942974 4.20496 2.10619Z"/>
</defs>
</svg>